<svg width="800" height="800" viewBox="0 0 800 800" fill="none" xmlns="http://www.w3.org/2000/svg">
<g clip-path="url(#clip0_48_1257)">
<path d="M476.25 343.315L451.25 300L198.2 446.142L173.28 431.75C179.911 426.356 185.555 419.851 189.96 412.525C197.378 399.68 200.82 384.923 199.851 370.121C198.882 355.32 193.546 341.138 184.518 329.369C175.489 317.6 163.173 308.772 149.128 304.003C135.082 299.233 119.938 298.735 105.609 302.573C91.2808 306.41 78.412 314.41 68.6302 325.561C58.8484 336.712 52.5928 350.513 50.6544 365.219C48.7161 379.925 51.182 394.876 57.7405 408.18C64.2989 421.485 74.6553 432.546 87.5001 439.965L148.2 475.012L87.5001 510.057C73.412 517.983 62.2242 530.202 55.568 544.933C48.9118 559.663 47.1352 576.135 50.4975 591.946C53.8597 607.757 62.1848 622.081 74.2589 632.828C86.3331 643.576 101.525 650.185 117.619 651.693C133.713 653.2 149.868 649.527 163.728 641.209C177.588 632.891 188.428 620.363 194.668 605.451C200.909 590.539 202.222 574.024 198.417 558.314C194.613 542.604 185.889 528.519 173.518 518.115L198.193 503.883L364.785 600L389.785 556.765L248.2 475.015L476.25 343.315ZM100.86 381.5C99.3614 375.913 99.8464 369.98 102.232 364.71C104.618 359.441 108.757 355.162 113.945 352.603C119.132 350.044 125.046 349.362 130.679 350.675C136.313 351.987 141.317 355.213 144.838 359.801C148.36 364.39 150.182 370.058 149.993 375.839C149.804 381.62 147.617 387.157 143.803 391.506C139.989 395.855 134.785 398.747 129.078 399.689C123.371 400.631 117.514 399.565 112.505 396.673C109.657 395.039 107.161 392.857 105.163 390.253C103.164 387.648 101.701 384.673 100.86 381.5ZM124.97 550C129.36 549.993 133.674 551.143 137.479 553.333C141.284 555.523 144.445 558.676 146.645 562.475C148.844 566.275 150.004 570.586 150.008 574.976C150.012 579.366 148.86 583.68 146.668 587.483C144.476 591.287 141.321 594.446 137.521 596.643C133.72 598.841 129.408 599.998 125.018 600C120.628 600.002 116.315 598.847 112.512 596.653C108.71 594.459 105.553 591.302 103.358 587.5C101.165 583.702 100.01 579.395 100.008 575.01C100.007 570.624 101.158 566.316 103.348 562.516C105.538 558.717 108.688 555.561 112.483 553.364C116.279 551.167 120.585 550.007 124.97 550Z" fill="white"/>
<path d="M525 650H425V700H525V650Z" fill="white"/>
<path d="M674 461.2H476V500.8H674V461.2Z" fill="white"/>
<path d="M350 650H250V700H350V650Z" fill="white"/>
<path d="M700 700H600V650H700V100H175V200H125V100C125.015 86.7438 130.288 74.035 139.661 64.6615C149.035 55.2879 161.744 50.0152 175 50H700C713.256 50.0152 725.965 55.2879 735.339 64.6615C744.712 74.035 749.985 86.7438 750 100V650C749.985 663.256 744.712 675.965 735.339 685.339C725.965 694.712 713.256 699.985 700 700Z" fill="white"/>
</g>
<defs>
<clipPath id="clip0_48_1257">
<rect width="800" height="800" fill="white"/>
</clipPath>
</defs>
</svg>
